<svg xmlns="http://www.w3.org/2000/svg"><symbol id="gift" viewBox="0 0 504.124 504.124"><path d="M15.754 133.909l236.308 118.154L488.37 133.909v252.062L252.062 504.123 15.754 385.969v-252.06z" fill="#db5449"/><path d="M15.754 157.538v73.649l235.52 115.397 237.095-115.791v-73.255L252.062 273.33 15.754 157.538z" fill="#c54b42"/><path d="M252.062 504.123v-252.06L31.508 141.786H15.754v244.185l236.308 118.152z" fill="#d05045"/><path d="M15.754 157.538v73.649l235.52 115.397.788-.394v-73.255.394L15.754 157.538z" fill="#bb483e"/><path d="M0 125.638L252.062.001l252.062 125.637v16.542L252.062 267.815 0 142.573v-16.935z" fill="#eb6258"/><path d="M396.603 39.779c-8.271-14.966-25.994-24.025-46.868-24.025-47.655 0-81.132 44.505-97.674 72.862-16.542-28.357-50.412-72.468-97.674-72.468-30.326 0-51.988 18.511-51.988 43.717 0 44.898 49.231 74.043 148.086 74.043s151.237-37.415 151.237-73.649c.001-7.089-1.574-14.178-5.119-20.48zM164.628 88.223c-11.028-7.483-14.966-15.754-14.966-21.268 0-6.695 6.302-11.815 15.36-11.815 21.268 0 38.203 27.963 47.655 47.262-24.812-1.97-39.385-8.666-48.049-14.179zm174.867 0c-8.665 5.514-23.237 12.209-48.049 14.178 9.058-19.298 25.994-47.262 47.655-47.262 9.058 0 15.36 5.12 15.36 11.815.001 5.515-3.938 13.785-14.966 21.269z" fill="#efefef"/><path d="M0 126.032l252.062 123.274 252.062-123.274v81.526l-252.85 123.274L0 207.558v-81.526z" fill="#e2574c"/><path d="M346.585 213.859v-9.058l-94.523-51.2-94.523 51.2v9.058L94.524 186.29v-12.603l154.387-81.526 3.151 1.575 3.151-1.575L409.6 173.293v12.603l-63.015 27.963z" fill="#efefef"/><path d="M346.585 204.801v251.668l63.015-31.508V173.293l-63.015 31.508z" fill="#dcdcdc"/><path d="M94.523 425.354l63.015 31.508V205.195l-63.015-31.902v252.061z" fill="#d1d1d1"/></symbol><symbol id="handshake" viewBox="0 0 490.01 490.01"><path fill="#a7a9ac" d="M9.11 246.527l52.617-153.42 62.711 21.507-52.616 153.42z"/><path d="M169.994 106.097l-6.1 3c-7.6 3.7-16.5 4.2-24.4 1.4l-10.2-3.6c-.6-.4-1.2-.7-1.8-.9l-62.8-21.5c-4.7-1.6-9.9.9-11.5 5.6l-52.7 153.5c-.8 2.3-.6 4.8.4 6.9s2.9 3.8 5.2 4.6l62.7 21.5c1 .3 2 .5 2.9.5 3.8 0 7.3-2.4 8.6-6.1l49.7-144.6 3.4 1.2c12.5 4.4 26.5 3.6 38.5-2.2l6.1-3c7.5-3.7 16.3-4.2 24.2-1.5l115.3 39.7c-1.2 4.8-3.6 10.5-8 13.6-4.9 3.4-12.2 3.4-21.8.1l-51.4-17.6c-2.4-.8-5-.6-7.2.6s-3.8 3.3-4.5 5.7c-.1.3-7.2 26.9-29.9 39.1-14.3 7.7-32.1 8-53 .9-4.7-1.6-9.9.9-11.5 5.6-1.6 4.7.9 9.9 5.6 11.5 12 4.1 23.3 6.2 33.8 6.2 12.2 0 23.4-2.7 33.6-8.2 20.3-10.9 30.8-30 35.6-41.4l42.9 14.7c15.3 5.3 28.1 4.5 38-2.4 15.9-11 16.7-33.3 16.8-34.3.1-4-2.4-7.5-6.1-8.8l-122.4-42.2c-12.3-4.2-26.2-3.3-38 2.4zm-103.8 150.4l-45.6-15.6 46.7-136.3 45.6 15.6-46.7 136.3z"/><path fill="#3c92ca" d="M421.274 268.948l-71.282-145.677 59.546-29.136 71.281 145.677z"/><path d="M410.194 266.797l-21.5 19.8c-19.5 17.9-41.5 33-65.3 44.6l-114.1 55.8c-5 2.5-11.1.4-13.6-4.7-2.5-5-.4-11.1 4.7-13.6l1.4-.7 62.4-30.5c4.5-2.2 6.4-7.6 4.2-12.1s-7.6-6.4-12.1-4.2l-62.4 30.5-31.4 15.4c-5 2.5-11.1.4-13.6-4.7-1.2-2.4-1.4-5.2-.5-7.7.9-2.6 2.7-4.6 5.1-5.8l23.7-11.6 67.8-33.2c4.5-2.2 6.4-7.6 4.2-12.1s-7.6-6.4-12.1-4.2l-67.9 33.3-2.6 1.3-32.4 15.9c-2.4 1.2-5.2 1.4-7.7.5-2.6-.9-4.6-2.7-5.8-5.1-2.5-5-.4-11.1 4.7-13.6l11.2-5.5 22.9-11.2 6.4-3.1 52.6-25.8c4.5-2.2 6.4-7.6 4.2-12.1s-7.6-6.4-12.1-4.2l-57 27.9-24.9 12.2c-5 2.4-11.1.4-13.6-4.7-1.2-2.4-1.4-5.2-.5-7.7.9-2.6 2.7-4.6 5.1-5.8l43.5-21.3c4.5-2.2 6.4-7.6 4.2-12.1s-7.6-6.4-12.1-4.2l-43.5 21.3c-6.8 3.3-11.9 9.1-14.3 16.2s-2 14.8 1.3 21.6c2.1 4.2 5.1 7.7 8.7 10.3-6.3 8.3-7.9 19.7-3 29.7 3.3 6.8 9.1 11.9 16.2 14.3 3 1 6 1.5 9 1.5-.1 4.5.8 9 2.9 13.1 4.9 10 15 15.8 25.4 15.8 4.2 0 8.4-.9 12.4-2.9l6.4-3.1c.3 3.4 1.2 6.7 2.7 9.9 4.9 10 15 15.8 25.4 15.8 4.2 0 8.4-.9 12.4-2.9l114.1-55.8c25.4-12.4 48.8-28.4 69.6-47.5l25.5-23.5 58.4-28.6c4.5-2.2 6.4-7.6 4.2-12.1l-71.4-145.5c-1.1-2.2-2.9-3.8-5.2-4.6-2.3-.8-4.8-.6-6.9.4l-59.6 29.1c-4.5 2.2-6.4 7.6-4.2 12.1l68.4 139.7zm-4.8-160.6l63.3 129.5-43.3 21.2-63.3-129.5 43.3-21.2z"/></symbol><symbol id="like" viewBox="0 0 489.1 489.1"><path d="M143.25 474.4h-69.9c-2.1 0-3.9-1.8-3.9-3.9V287.3c0-2.1 1.8-3.9 3.9-3.9h69.9c2.1 0 3.9 1.8 3.9 3.9v183.2c0 2.1-1.8 3.9-3.9 3.9z" fill="#3c92ca"/><path d="M255.75 78.9c-2.4 0-4.7 1-6.4 2.7s-2.6 4-2.6 6.4 1 4.7 2.6 6.4c1.7 1.7 4 2.7 6.4 2.7s4.7-1 6.4-2.7c1.7-1.7 2.7-4 2.7-6.4s-1-4.7-2.7-6.4c-1.7-1.7-4-2.7-6.4-2.7zM255.75 39.5c-5 0-9.1 4.1-9.1 9.1s4 9.1 9.1 9.1c5 0 9.1-4 9.1-9.1s-4.1-9.1-9.1-9.1zM262.15 2.7c-1.7-1.7-4-2.7-6.4-2.7s-4.7 1-6.4 2.7-2.6 4-2.6 6.4 1 4.7 2.6 6.4c1.7 1.7 4 2.7 6.4 2.7s4.7-1 6.4-2.7c1.7-1.7 2.7-4 2.7-6.4s-1-4.7-2.7-6.4zM419.65 195.4c2.4 0 4.7-1 6.4-2.7 1.7-1.7 2.7-4 2.7-6.4s-1-4.7-2.7-6.4-4-2.7-6.4-2.7-4.7 1-6.4 2.7c-1.7 1.7-2.7 4-2.7 6.4s1 4.7 2.7 6.4c1.7 1.8 4 2.7 6.4 2.7zM380.25 195.4c5 0 9.1-4.1 9.1-9.1s-4-9.1-9.1-9.1c-5 0-9.1 4.1-9.1 9.1 0 5.1 4.1 9.1 9.1 9.1zM340.85 195.4c2.4 0 4.7-1 6.4-2.7 1.7-1.7 2.7-4 2.7-6.4s-1-4.7-2.7-6.4-4-2.7-6.4-2.7-4.7 1-6.4 2.7c-1.7 1.7-2.7 4-2.7 6.4s1 4.7 2.7 6.4 4 2.7 6.4 2.7zM91.85 195.4c2.4 0 4.7-1 6.4-2.7s2.7-4 2.7-6.4-1-4.7-2.7-6.4-4-2.7-6.4-2.7c-2.4 0-4.7 1-6.4 2.7-1.7 1.7-2.6 4-2.6 6.4s1 4.7 2.6 6.4c1.7 1.8 4 2.7 6.4 2.7zM122.15 186.4c0 5 4 9.1 9.1 9.1 5 0 9.1-4.1 9.1-9.1s-4.1-9.1-9.1-9.1-9.1 4.1-9.1 9.1zM164.25 192.8c1.7 1.7 4 2.7 6.4 2.7s4.7-1 6.4-2.7 2.7-4 2.7-6.4-1-4.7-2.7-6.4-4-2.7-6.4-2.7-4.7 1-6.4 2.7-2.6 4-2.6 6.4.9 4.7 2.6 6.4zM125.45 63.4c2.4 0 4.7-1 6.4-2.7s2.7-4 2.7-6.4-1-4.7-2.7-6.4-4-2.7-6.4-2.7c-2.4 0-4.7 1-6.4 2.7-1.7 1.7-2.7 4-2.7 6.4s1 4.7 2.7 6.4c1.6 1.8 4 2.7 6.4 2.7zM153.35 91.3c2.3 0 4.6-.9 6.4-2.7 3.5-3.5 3.5-9.3 0-12.8s-9.3-3.5-12.8 0-3.5 9.3 0 12.8c1.7 1.8 4 2.7 6.4 2.7zM181.15 119.2c2.4 0 4.7-1 6.4-2.6 1.7-1.7 2.7-4 2.7-6.4s-1-4.7-2.7-6.4c-1.7-1.7-4-2.7-6.4-2.7s-4.7 1-6.4 2.7-2.7 4-2.7 6.4 1 4.7 2.7 6.4c1.7 1.6 4.1 2.6 6.4 2.6zM384.15 66.5c1.7-1.7 2.7-4 2.7-6.4s-1-4.7-2.7-6.4-4-2.7-6.4-2.7-4.7 1-6.4 2.7c-1.7 1.7-2.7 4-2.7 6.4s1 4.7 2.7 6.4c1.7 1.7 4 2.7 6.4 2.7 2.3 0 4.7-1 6.4-2.7zM356.25 81.6c-3.5-3.5-9.3-3.5-12.8 0s-3.5 9.3 0 12.8c1.8 1.8 4.1 2.7 6.4 2.7s4.6-.9 6.4-2.7c3.5-3.6 3.5-9.3 0-12.8zM321.95 106.8c-2.4 0-4.7 1-6.4 2.7-1.7 1.7-2.7 4-2.7 6.4s1 4.7 2.7 6.4 4 2.7 6.4 2.7 4.7-1 6.4-2.7c1.7-1.7 2.7-4 2.7-6.4s-1-4.7-2.7-6.4c-1.7-1.8-4-2.7-6.4-2.7z"/><path d="M60.35 291.2v175.3c0 9.3 7.6 16.9 16.9 16.9h62c6.2 0 11.7-3.4 14.6-8.4 9.1 8.7 21.5 14.1 35.1 14.1h156.4c34.6 0 56.6-18.1 60.5-49.7l21-133.7c.1-.5.1-.9.1-1.4 0-28.1-22.9-50.9-50.9-50.9h-79.1v-57c0-24-7-41.4-20.9-51.5-21.9-16.1-52.1-6.9-53.4-6.5-3.8 1.2-6.3 4.7-6.3 8.6v63.9c0 50.4-58.5 67.6-60.9 68.3-1.2.3-2.2.9-3.1 1.6-3.1-3.9-7.9-6.4-13.2-6.4h-62c-9.2-.1-16.8 7.5-16.8 16.8zm100.1 5.4c3-.8 74.2-21.5 74.2-85.7v-56.6c7.8-1.2 21.2-1.9 30.9 5.2 8.9 6.6 13.5 19 13.5 36.9v66.1c0 5 4.1 9.1 9.1 9.1h88.1c17.9 0 32.5 14.4 32.8 32.2l-20.9 133.1v.3c-2.7 22.5-17.1 33.9-42.6 33.9h-156.5c-18.1 0-32.8-14.7-32.8-32.8V296.7c1.3.3 2.8.3 4.2-.1zm-82-4.2h59.6v172.9h-59.6V292.4z"/></symbol></svg>