<svg xmlns="http://www.w3.org/2000/svg"><symbol id="adoption" viewBox="36 41 28 18"><path d="M63 41.5H37a1 1 0 0 0-1 1v15a1 1 0 0 0 1 1h26a1 1 0 0 0 1-1v-15a1 1 0 0 0-1-1zm0 16H37v-15h26v15z"/><path d="M52.842 48.297h-1.706v-3.409h-2.272v3.409h-1.705l2.843 2.843 2.84-2.843zm2.465 3.714a64.42 64.42 0 0 0-1.143-1.202.852.852 0 0 0-.592-.237h-1l1.742 1.701h-2.013a.16.16 0 0 0-.139.076l-.464 1.063H48.3l-.464-1.063a.158.158 0 0 0-.138-.076h-2.013l1.741-1.701h-.999a.86.86 0 0 0-.593.237c-.226.222-1.023 1.076-1.142 1.202-.278.295-.431.53-.359.823l.318 1.746c.074.292.393.533.712.533h9.271c.318 0 .64-.241.711-.533l.318-1.746c.074-.293-.078-.528-.356-.823z"/></symbol><symbol id="baby" viewBox="0 0 386.588 386.588"><path d="M49.419 244.723c16.438 45.334 54.559 79.707 100.532 93.25 8.144 15.661 24.5 26.402 43.342 26.402 18.84 0 35.196-10.741 43.336-26.402 45.974-13.543 84.098-47.922 100.532-93.25 27.304-.311 49.426-22.614 49.426-49.998 0-27.379-22.116-49.687-49.426-50-10.504-28.975-29.892-53.466-54.498-70.939v19.288c0 1.37-.226 2.685-.548 3.958 18.273 15.82 32.272 36.477 39.524 60.252l2.345 7.699 7.958-1.172c1.814-.262 3.276-.387 4.641-.387 17.256 0 31.298 14.042 31.298 31.301 0 17.264-14.042 31.305-31.298 31.305-1.364 0-2.826-.128-4.616-.39l-7.977-1.193-2.351 7.715c-11.923 39.087-42.052 69.715-79.549 84.231.006-.286.043-.566.043-.853 0-9.268-2.643-17.921-7.155-25.318 4.524-4.865 7.155-10.607 7.155-16.843 0-17.963-21.452-32.029-48.841-32.029-27.392 0-48.841 14.066-48.841 32.029 0 6.235 2.631 11.978 7.152 16.843-4.509 7.397-7.152 16.051-7.152 25.318 0 .286.037.566.043.853-37.503-14.517-67.626-45.145-79.549-84.231l-2.351-7.715-7.974 1.193c-1.796.262-3.264.39-4.622.39-17.26 0-31.295-14.041-31.295-31.305 0-17.259 14.036-31.301 31.295-31.301 1.352 0 2.825.125 4.634.387l7.961 1.172 2.345-7.699c7.979-26.178 24.167-48.519 45.212-64.828V69.639c-27.554 17.628-49.359 43.711-60.733 75.073C22.116 145.038 0 167.345 0 194.725c0 27.383 22.116 49.687 49.419 49.998zm113.734 70.811c0-5.462 1.571-10.528 4.128-14.949 4.095-7.094 10.917-12.373 19.104-14.31 2.226-.535 4.521-.877 6.908-.877 2.387 0 4.683.354 6.905.877 8.185 1.931 15.004 7.216 19.103 14.31 2.551 4.421 4.128 9.487 4.128 14.949 0 2.338-.322 4.585-.834 6.771-2.362 10.182-9.877 18.299-19.649 21.635-3.051 1.048-6.26 1.736-9.658 1.736s-6.61-.688-9.658-1.736c-9.773-3.336-17.299-11.459-19.649-21.635-.497-2.186-.828-4.433-.828-6.771zm30.141-55.491c18.109 0 30.135 8.026 30.135 13.324 0 .913-.475 1.918-1.163 2.935-8.11-6.011-18.115-9.615-28.972-9.615s-20.864 3.604-28.981 9.615c-.679-1.017-1.16-2.021-1.16-2.935 0-5.298 12.023-13.324 30.141-13.324z"/><path d="M153.8 213.169c16.082 0 16.082-24.941 0-24.941s-16.082 24.941 0 24.941zM232.782 211.61c16.082 0 16.082-24.941 0-24.941-16.081 0-16.081 24.941 0 24.941zM142.371 124.061h2.076l1.882-.88c17.156-8.017 29.094-14.273 37.518-19.284 3.879 1.589 8.114 2.5 12.559 2.5s8.677-.911 12.562-2.5c8.428 5.011 20.362 11.268 37.51 19.284l1.888.88h2.076c9.858 0 18.115-6.616 20.812-15.606.591-1.982 1.011-4.04 1.011-6.217V44.049c0-12.032-9.785-21.823-21.823-21.823h-2.076l-1.888.88c-10.498 4.908-19.047 9.158-26.05 12.875-4.433 2.35-8.202 4.469-11.46 6.409-2.898-1.185-6.028-1.845-9.268-2.168-1.099-.112-2.164-.332-3.294-.332s-2.201.225-3.297.338c-3.236.323-6.366.977-9.262 2.167-3.267-1.945-7.027-4.058-11.46-6.408-7.008-3.718-15.551-7.962-26.058-12.876l-1.882-.898h-2.076c-12.035 0-21.824 9.789-21.824 21.824V102.232c0 2.177.417 4.232 1.011 6.217 2.7 8.995 10.954 15.612 20.813 15.612zm51.34-65.203c.88-.162 1.771-.274 2.694-.274s1.82.106 2.694.274c1.599.298 3.084.904 4.46 1.684 1.863 1.06 3.478 2.488 4.713 4.229.073.098.159.191.231.298a14.44 14.44 0 0 1 1.212 13.886 14.798 14.798 0 0 1-1.212 2.244 14.86 14.86 0 0 1-3.823 3.879c-.354.243-.743.435-1.121.648-2.119 1.208-4.542 1.957-7.154 1.957s-5.033-.749-7.158-1.957c-.374-.213-.761-.405-1.117-.648a14.715 14.715 0 0 1-3.821-3.879 14.063 14.063 0 0 1-1.215-2.238 14.368 14.368 0 0 1-1.236-5.824c0-2.98.91-5.754 2.457-8.068.219-.326.487-.6.722-.898a14.522 14.522 0 0 1 4.217-3.623c1.37-.786 2.856-1.386 4.457-1.69zm58.136-17.61a3.124 3.124 0 0 1 1.718 2.789V102.231c0 .25-.146.448-.195.679-.219.904-.719 1.702-1.522 2.106-9.365-4.445-19.272-9.502-27.474-14.029.499-.785.9-1.638 1.339-2.469 2.436-4.619 3.952-9.806 3.952-15.387 0-1.486-.25-2.898-.433-4.326-.407-3.075-1.108-6.056-2.289-8.805-.719-1.659-1.607-3.218-2.569-4.722.932-.518 1.905-1.035 2.874-1.564a426.025 426.025 0 0 1 5.991-3.179 555.953 555.953 0 0 1 18.608-9.287zM139.253 55.067v-11.03a3.13 3.13 0 0 1 1.72-2.789 563 563 0 0 1 16.443 8.163 528.718 528.718 0 0 1 8.163 4.308c.971.523 1.939 1.05 2.874 1.568-.968 1.501-1.851 3.06-2.563 4.719-.986 2.274-1.671 4.688-2.125 7.188-.35 1.933-.6 3.91-.6 5.943 0 5.581 1.516 10.763 3.955 15.388.436.831.834 1.678 1.34 2.463-8.205 4.527-18.109 9.59-27.475 14.039-.81-.414-1.309-1.206-1.525-2.11-.058-.229-.195-.43-.195-.679V55.067h-.012z"/></symbol><symbol id="bulb" viewBox="30 30 40 40"><path d="M50.083 34c-.037 0 0 .008 0 .008-.037 0-.073-.008-.109-.008-6.758 0-11.553 4.904-11.553 11.661 0 3.589 1.659 5.757 3.121 7.67 1.423 1.86 2.652 3.466 2.652 6.313 0 .979.288 1.773.804 2.334v1.48c0 .35 1.271 1.27 1.271 1.27v.637c0 .35.271.635.621.635h6.357c.35 0 .648-.285.648-.635v-.637s1.271-.92 1.271-1.27v-1.697c.383-.543.598-1.254.598-2.117 0-2.848 1.242-4.453 2.664-6.313 1.463-1.913 3.148-4.081 3.148-7.67C61.578 38.904 56.84 34 50.083 34m6.327 17.787c-1.486 1.944-3.146 4.15-3.146 7.857h-6.527c0-3.707-1.687-5.913-3.173-7.857-1.396-1.823-2.6-3.396-2.6-6.126 0-5.368 3.75-9.119 9.119-9.119 5.084 0 9.022 3.75 9.022 9.119 0 2.73-1.3 4.303-2.695 6.126"/></symbol><symbol id="marker" viewBox="0 0 512 512"><style>.st0{fill:#231f20}</style><path class="st0" d="M256 76.8c-69 0-125 58.6-125 130.9 0 72.3 105.3 227.6 125 227.6S381 280 381 207.7c0-72.3-56-130.9-125-130.9zm0 182.2c-33.2 0-60.1-26.9-60.1-60.2 0-33.2 26.9-60.1 60.1-60.1s60.1 26.9 60.1 60.1S289.2 259 256 259z"/></symbol><symbol id="stadium" viewBox="0 0 960 960"><path d="M482.256 481.197c-79.913 0-154.956 7.642-211.309 21.516-12.172 2.998-22.755 6.126-31.938 9.304 68.744 11.967 152.656 18.999 243.247 18.999 90.588 0 174.497-7.032 243.241-18.999-9.183-3.178-19.762-6.306-31.937-9.304-56.35-13.874-131.395-21.516-211.304-21.516z"/><path d="M482.256 466.357c104.692 0 213.972 13.995 270.212 40.551 28.833-5.928 54.396-12.786 75.943-20.39-11.203-12.734-39.344-27.849-92.74-40.997-67.577-16.64-157.574-25.805-253.415-25.805-95.848 0-185.843 9.165-253.42 25.805-53.395 13.148-81.537 28.263-92.739 40.997 21.548 7.604 47.112 14.462 75.944 20.39 56.24-26.556 165.519-40.551 270.215-40.551z"/><path d="M482.256 583.955c-187.906 0-349.517-32.63-421.229-79.505l53.447 196.911c.326 1.709.781 2.923 1.384 4.61l.139.028h.062c15.14 41.644 108.439 75.19 235.281 89.03-6.325-32.236-14.165-72.229-15.816-80.842-2.859-14.907 14.089-35.106 24.1-48.226C369.632 652.85 377.875 640 391.574 640h194.787c17.793 0 20.73 8.596 32.758 26.066 12.025 17.467 27.666 37.202 25.413 47.809-1.298 6.107-9.848 46.349-16.865 79.383 125.984-15.679 215.688-51.13 222.531-93.023l53.234-195.877c-71.736 46.86-233.317 79.597-421.176 79.597z"/><path d="M573.412 817.005c0 11.709-9.492 20.995-21.199 20.995H425.016c-11.709 0-21.2-9.286-21.2-20.995l-12.721-62.703c0-11.704 9.493-20.302 21.201-20.302h152.638c11.707 0 21.197 8.598 21.197 20.302l-12.719 62.703zM853 377.53v-53.736l28.369 5.514c7.936 1.542 14.368-3.544 14.368-10.71l8.621-37.184c0-7.168-6.434-14.157-14.368-15.698l-103.455-20.109c-7.935-1.542-14.366 2.943-14.366 10.114l8.621 40.533c0 7.167 6.433 14.756 14.368 16.299L829 319.129v48.824c-73.387-26.019-193.833-43.382-331-44.621V263h33.719c7.935 0 14.368-6.511 14.368-13.677l8.62-38.639c0-7.168-6.431-12.684-14.365-12.684H436.887c-7.936 0-14.369 5.516-14.369 12.684l8.622 38.639c0 7.166 6.434 13.677 14.368 13.677H475v60.277c-140.375.583-264.054 18.046-339 44.503v-48.54l34.413-6.689c7.936-1.543 14.369-9.132 14.369-16.299l8.62-40.533c0-7.17-6.43-11.655-14.366-10.114l-103.454 20.11c-7.936 1.541-14.369 8.53-14.369 15.698l8.62 37.184c0 7.166 6.434 12.252 14.369 10.71L114 323.516v52.903c-34.148 15-53.62 32.3-53.62 50.721 0 19.055 20.86 36.912 57.237 52.263 34.898-51.314 204.254-78.764 364.639-78.764 160.379 0 329.736 27.45 364.634 78.764 36.379-15.352 57.238-33.208 57.238-52.263 0-17.968-18.526-34.869-51.128-49.61z"/></symbol></svg>